<svg width="2720" height="598" viewBox="0 0 2720 598" fill="none" xmlns="http://www.w3.org/2000/svg">
<path d="M736.272 451.973V175.117H744.476H746.526H758.147H760.882H763.616H766.351H769.085H776.604H788.909H791.644H795.745H799.163H803.265H814.886H818.987H823.772H827.874H832.659H836.761H841.546H846.331H854.534H856.585H868.206H870.94H879.827H883.245H885.979H889.397H892.132H896.917H902.386H910.589H912.64H924.261H926.995H934.515H939.983H945.452H950.921C953.883 175.117 957.529 175.573 961.858 176.484C963.681 176.257 965.504 176.484 967.327 177.168L969.378 177.852H971.429L973.479 178.535H975.53L983.05 181.953H985.101C1010.28 193.118 1027.6 212.943 1037.05 241.426C1044.69 265.921 1041.27 290.303 1026.8 314.57C1012.67 337.471 990.797 351.598 961.175 356.953C962.656 359.232 964.935 361.51 968.011 363.789L968.694 365.156L970.062 365.84L973.479 369.258L974.847 371.309L976.214 371.992C976.328 372.448 976.784 372.904 977.581 373.359C977.695 373.815 978.151 374.271 978.948 374.727L980.315 376.777L982.366 378.145C983.619 380.081 985.442 381.904 987.835 383.613L991.253 387.715L1000.14 396.602C1001.17 397.741 1002.76 399.108 1004.92 400.703C1005.04 401.159 1005.49 401.615 1006.29 402.07L1009.03 405.488C1010.96 407.539 1013.7 410.046 1017.23 413.008C1017.34 413.464 1017.8 413.919 1018.6 414.375L1019.28 415.742L1020.65 417.109L1022.01 418.477L1023.38 419.844L1024.75 421.211C1025.77 422.35 1027.37 423.717 1029.53 425.312C1029.65 425.768 1030.1 426.224 1030.9 426.68L1033.64 429.414L1035 431.465C1035.12 431.921 1035.57 432.376 1036.37 432.832C1036.71 434.655 1037.62 436.478 1039.1 438.301C1041.38 445.251 1041.16 452.77 1038.42 460.859C1031.36 475.557 1019.05 481.481 1001.51 478.633C997.861 477.038 993.759 474.531 989.202 471.113C989.088 470.658 988.632 470.202 987.835 469.746C985.67 466.67 982.48 463.48 978.265 460.176L974.847 456.074L973.479 454.707C971.884 453.454 970.062 451.631 968.011 449.238L965.96 447.871L959.808 441.035L957.073 438.984C955.82 437.048 953.997 435.225 951.604 433.516C950.123 431.237 947.845 428.958 944.769 426.68L944.085 425.312L935.882 417.793C935.768 417.337 935.312 416.882 934.515 416.426L933.831 415.059L932.464 413.691L931.097 412.324L929.729 410.957L928.362 409.59L926.312 407.539L923.577 404.805L920.159 402.07L917.425 398.652L907.171 389.082L903.753 384.98C902.386 383.499 900.563 381.904 898.284 380.195L897.601 378.828L896.233 378.145L895.55 376.777L894.183 375.41L892.815 374.727C892.701 374.271 892.246 373.815 891.448 373.359L890.081 371.309L888.714 370.625L884.612 365.84L882.562 363.789L879.144 361.055L876.409 357.637H862.737H860.687H857.952H855.901H852.483H850.433H840.862H819.671H810.784H805.999H801.897H797.112V371.309V373.359V376.094V378.145V381.562V383.613V393.184V414.375V423.262V428.047V440.352V443.086V445.137V447.871L796.429 449.922V452.656V454.707L795.745 456.758V458.809C782.187 483.988 764.186 486.95 741.741 467.695C739.463 463.822 737.868 459.036 736.956 453.34L736.272 451.973ZM799.847 235.957H797.112V244.16V246.211V257.832V260.566V263.301V266.035V278.34V281.074V284.492V294.062V297.48H805.315H807.366H818.987H821.722H830.608H834.026H841.546H849.749H851.8H863.421H866.155H875.042H883.245H885.296H896.917H910.589H912.64H915.374H917.425H920.843H922.894H932.464H937.933H943.401L957.073 296.797C971.315 292.24 979.062 281.986 980.315 266.035C979.29 251.452 971.315 241.426 956.39 235.957H951.604H946.136H934.515H931.78H922.894H919.476H911.956H907.171H901.702H890.081H887.347H878.46H870.257H868.206H856.585H852.483H847.698H842.229H830.608H827.874H825.14H822.405H819.671H812.151H799.847ZM1073.63 231.172C1088.55 199.043 1115.21 180.358 1153.61 175.117H1161.81H1163.86H1175.48H1178.22H1187.1H1199.41H1201.46H1204.19H1217.86H1219.92H1222.65H1230.85H1232.9H1244.52H1265.72H1267.77H1269.82H1278.7H1280.75H1282.81H1284.86C1287.82 175.801 1291.69 176.257 1296.48 176.484L1297.84 177.168H1299.9L1304.68 178.535L1306.73 179.219L1310.15 179.902L1311.52 181.27H1313.57L1315.62 181.953C1319.15 184.46 1323.94 186.966 1329.97 189.473C1331.45 191.068 1333.51 192.663 1336.13 194.258L1340.91 198.359L1342.96 199.727L1349.11 206.562L1349.8 207.93L1351.17 208.613L1354.58 214.082L1355.95 214.766L1360.74 224.336L1362.1 226.387L1362.79 227.754L1363.47 229.805L1364.84 231.172C1365.06 233.223 1365.98 235.957 1367.57 239.375C1367.57 240.059 1367.8 240.742 1368.25 241.426C1368.25 243.249 1368.71 245.299 1369.62 247.578C1369.62 248.262 1369.85 248.945 1370.31 249.629C1370.19 253.161 1370.65 257.262 1371.67 261.934V264.668V269.453V271.504V274.238V281.758V289.277V300.898V304.316V307.051V315.938V317.988V321.406V324.824V328.242V336.445V338.496V350.117V352.852V361.738V366.523V371.992V385.664V387.715V393.184V397.969V402.754V410.957V413.008V424.629V427.363V431.465V445.137V447.188C1371.79 449.238 1371.56 451.745 1370.99 454.707L1370.31 456.758V459.492C1366.55 467.467 1360.17 473.848 1351.17 478.633C1334.87 482.165 1322.11 476.24 1312.88 460.859C1312.09 457.783 1311.63 454.137 1311.52 449.922C1310.95 447.985 1310.72 445.706 1310.83 443.086V357.637H1302.63H1300.58H1288.96H1286.22H1283.49H1280.75H1268.45H1265.72H1256.83H1243.16H1241.11H1237H1224.7H1221.97H1219.92H1217.18H1215.13H1212.4H1209.66H1206.93H1204.19H1196.67H1184.37H1181.63H1177.53H1174.11H1170.01H1158.39H1154.29H1149.5H1145.4H1140.62H1136.52H1131.73H1127.63V371.309V373.359V376.094V378.145V381.562V383.613V393.184V414.375V423.262V428.047V440.352V443.086V445.137V447.871L1126.95 449.922V452.656V454.707L1126.26 456.758V458.809L1121.48 467.695C1120.22 468.949 1118.86 470.544 1117.38 472.48C1116.92 472.594 1116.46 473.05 1116.01 473.848C1096.98 484.443 1081.26 480.342 1068.84 461.543C1067.02 454.593 1066.33 445.706 1066.79 434.883V262.617C1067.47 259.541 1067.93 255.439 1068.16 250.312L1068.84 248.945L1069.52 244.16L1070.21 242.109L1070.89 240.059L1072.94 234.59L1073.63 231.172ZM1154.97 235.957H1151.56C1130.93 241.995 1122.96 262.503 1127.63 297.48H1135.83H1137.88H1149.5H1152.24H1154.97H1157.71H1160.44H1167.96H1180.27H1183H1187.1H1190.52H1194.62H1199.41H1203.51H1208.29H1229.49H1231.54H1233.59H1247.26H1252.73H1258.2H1263.67H1269.13H1282.81H1291.01H1293.06H1304.68H1307.42H1309.47C1310.49 295.088 1310.95 292.581 1310.83 289.961C1314.93 264.782 1309.01 247.464 1293.06 238.008C1284.4 235.843 1273.24 235.16 1259.56 235.957H1254.09H1252.04H1249.99H1247.94H1245.89H1243.16H1241.11H1232.22H1229.49H1219.92H1216.5H1213.08H1209.66H1206.24H1201.46H1195.99H1184.37H1181.63H1172.75H1159.08H1157.02H1154.97ZM1398.85 307.734C1390.87 228.665 1420.04 184.46 1486.35 175.117H1494.55H1496.6H1508.22H1510.96H1513.69H1516.42H1519.16H1526.68H1538.98H1541.72H1545.82H1549.24H1553.34H1558.12H1562.22H1567.01H1588.2H1590.25H1592.3H1605.97H1611.44H1616.91H1622.38H1627.85H1641.52H1649.72H1651.78H1663.4H1666.13H1668.18H1673.65C1676.84 175.231 1680.49 176.143 1684.59 177.852H1686.64C1695.53 183.434 1701.22 191.865 1703.73 203.145V203.828V203.145V204.512V203.828V205.195V204.512V205.879V205.195V206.562V205.879V207.246V206.562V207.93V207.246V207.93C1701.79 218.981 1695.41 227.64 1684.59 233.906C1681.63 234.248 1677.98 234.932 1673.65 235.957H1664.76H1662.71H1660.66H1658.61H1653.14H1651.09H1649.04H1642.21H1639.47H1636.74H1634H1631.27H1628.53H1614.86H1612.81H1610.08H1608.03H1604.61H1602.56H1599.82H1590.94H1588.88H1584.78H1571.11H1569.06H1566.33H1564.28H1560.86H1558.81H1549.92H1547.87H1545.82H1524.63H1510.96H1508.9H1506.17H1504.12H1500.7H1498.65H1495.92H1493.87C1488.85 235.615 1483.38 236.299 1477.46 238.008C1471.65 241.084 1466.41 246.325 1461.74 253.73C1460.26 257.49 1459.57 262.048 1459.69 267.402V279.023V288.594V295.43V307.734V310.469V322.773V325.508V327.559V330.293V333.027V336.445V339.863V348.066V350.117V361.738V364.473V367.207V369.941V382.246V384.98V388.398C1459.57 391.133 1459.8 394.323 1460.37 397.969C1465.5 410.729 1475.52 417.793 1490.45 419.16H1502.75H1505.49H1507.54H1510.27H1512.32H1515.06H1517.79H1520.53H1523.26H1530.78H1543.08H1545.82H1549.92H1553.34H1557.44H1562.22H1566.33H1575.21H1577.26H1581.37H1602.56H1604.61H1606.66C1624.43 420.755 1636.28 412.78 1642.21 395.234C1644.6 379.854 1638.45 368.005 1623.75 359.688C1616.68 357.751 1607.8 357.067 1597.09 357.637H1595.04H1585.47H1583.42H1581.37H1579.31H1565.64H1563.59H1560.86H1558.81H1555.39H1553.34H1550.6C1547.41 357.409 1543.54 356.725 1538.98 355.586C1534.31 352.965 1529.53 348.636 1524.63 342.598C1517.56 325.052 1522.35 310.697 1538.98 299.531C1545.93 297.708 1554.82 297.025 1565.64 297.48H1567.69H1569.74H1576.58H1578.63H1590.25H1599.14H1601.87H1610.76C1615.32 297.025 1620.33 297.48 1625.8 298.848L1630.58 299.531C1633.43 299.759 1636.17 300.443 1638.79 301.582L1643.57 302.949C1647.1 304.089 1650.98 305.911 1655.19 308.418L1657.24 309.102L1658.61 310.469L1661.35 311.152L1664.76 313.887L1668.87 317.305L1670.92 317.988V318.672V317.988V318.672C1672.28 320.153 1674.11 321.748 1676.38 323.457L1677.07 324.824L1678.44 325.508L1679.12 326.875L1680.49 328.242L1681.85 328.926C1681.97 329.382 1682.42 329.837 1683.22 330.293C1707.83 362.878 1710.11 397.969 1690.06 435.566C1668.52 470.999 1629.79 485.811 1573.85 480H1565.64H1563.59H1551.97H1549.24H1541.72H1530.1H1527.36C1436.9 487.52 1394.06 447.188 1398.85 359.004V307.734ZM1730.05 292.695C1725.03 223.652 1754.2 184.46 1817.55 175.117H1825.75H1827.8H1839.42H1842.16H1844.89H1847.62H1850.36H1857.88H1870.18H1872.92H1877.02H1880.44H1884.54H1889.32H1893.43H1898.21H1919.4H1921.45H1923.5H1937.18H1942.64H1948.11C1951.08 175.801 1954.95 176.257 1959.73 176.484L1961.1 177.168H1963.15L1967.94 178.535L1969.99 179.219L1973.41 179.902L1974.77 181.27H1976.82L1978.88 181.953C1999.95 191.637 2016.36 208.044 2028.09 231.172V231.855V231.172V232.539V231.855V232.539C2028.55 234.476 2029.46 236.527 2030.83 238.691L2031.51 243.477L2032.2 244.844C2032.42 246.325 2032.88 247.92 2033.56 249.629V251.68L2034.93 263.301V266.035V271.504V273.555V276.289V278.34V280.391V282.441V285.176V287.227V289.277V291.328V294.062V296.797V299.531V307.051V315.938V319.355V322.09V330.293V332.344V343.965V346.699V355.586V359.004V361.738V374.043V376.777V390.449V392.5L2034.25 396.602V400.703L2031.51 413.008L2030.83 414.375L2030.14 416.426V418.477L2028.78 420.527L2028.09 423.945L2021.26 436.25L2020.57 437.617L2019.89 438.984L2018.52 440.352L2017.16 442.402L2015.79 443.77L2015.11 445.82C2013.97 446.732 2012.6 448.099 2011 449.922L2009.64 451.289C2008.5 452.314 2007.13 453.91 2005.54 456.074C2005.08 456.188 2004.62 456.644 2004.17 457.441C2001.32 458.809 1998.36 461.087 1995.28 464.277L1990.5 467.012L1988.45 467.695L1987.08 468.379C1985.26 469.176 1983.43 470.316 1981.61 471.797C1979.1 472.48 1976.14 473.62 1972.72 475.215C1972.27 475.101 1971.81 475.329 1971.36 475.898C1967.94 476.126 1964.06 477.038 1959.73 478.633H1957.68H1955.63L1954.27 479.316H1948.8L1946.06 480H1937.86H1935.81H1924.19H1921.45H1912.57H1900.26H1898.21H1895.48H1881.8H1879.75H1877.02H1872.23H1866.77H1855.14H1841.47H1839.42H1836.69H1834.64H1831.22H1829.17H1819.6L1814.13 479.316C1753.4 469.518 1725.38 430.553 1730.05 362.422V292.695ZM1824.38 235.957H1814.81C1805.81 238.919 1798.52 244.844 1792.94 253.73C1791.46 257.49 1790.77 262.048 1790.89 267.402V279.023V288.594V295.43V307.734V310.469V319.355V333.027V335.078V337.812V339.863V343.281V345.332V348.75V362.422V367.891V380.195V382.93V384.98V387.715V390.449V393.867C1791.46 397.285 1792.82 400.931 1794.99 404.805L1795.67 406.172C1799.66 411.071 1805.13 415.173 1812.08 418.477C1816.07 419.16 1821.08 419.388 1827.12 419.16H1831.9H1833.95H1836.69H1838.74H1840.79H1848.31H1851.04H1862.66H1865.4H1877.02H1885.91H1887.96H1892.74H1913.93H1915.98H1918.04H1931.71H1937.18H1942.64H1948.11L1952.9 418.477C1959.28 415.97 1964.75 411.641 1969.3 405.488C1971.36 402.64 1972.95 398.994 1974.09 394.551V259.883C1972.27 253.844 1968.85 248.148 1963.84 242.793C1960.19 240.173 1955.63 237.894 1950.16 235.957H1945.38H1939.91H1928.29H1925.55H1916.67H1913.25H1905.73H1900.95H1895.48H1883.86H1881.12H1872.23H1864.03H1861.98H1850.36H1836.69H1834.64H1831.9H1829.85H1826.43H1824.38ZM2062.1 195.625C2066.66 185.485 2075.09 178.649 2087.4 175.117C2094.69 175.117 2102.21 177.168 2109.95 181.27C2112.12 184.346 2115.31 187.536 2119.52 190.84L2122.94 194.941L2124.31 196.309C2125.9 197.562 2127.73 199.385 2129.78 201.777L2131.83 203.145L2137.98 209.98L2140.72 212.031C2141.97 213.968 2143.79 215.791 2146.18 217.5C2147.67 219.779 2149.94 222.057 2153.02 224.336L2153.7 225.703L2161.91 233.223C2162.02 233.678 2162.48 234.134 2163.27 234.59L2163.96 235.957L2165.33 237.324L2166.69 238.691L2168.06 240.059L2169.43 241.426L2171.48 243.477L2174.21 246.211L2177.63 248.945L2180.36 252.363L2190.62 261.934C2193.58 265.807 2197.91 270.137 2203.61 274.922C2203.72 275.378 2204.18 275.833 2204.97 276.289C2205.09 276.745 2205.54 277.201 2206.34 277.656C2207.37 279.365 2208.96 280.96 2211.13 282.441L2213.18 284.492C2215.34 287.568 2218.53 290.758 2222.75 294.062C2224.23 296.341 2226.51 298.62 2229.58 300.898L2230.27 302.266L2231.63 302.949L2232.32 304.316L2236.42 307.734L2239.84 311.836L2243.94 315.254C2245.42 317.533 2247.7 319.811 2250.77 322.09L2251.46 323.457L2252.83 324.141L2256.24 327.559L2257.61 329.609L2258.98 330.293C2259.09 330.749 2259.55 331.204 2260.34 331.66C2260.46 332.116 2260.91 332.572 2261.71 333.027L2263.08 335.078L2265.13 336.445L2266.5 338.496L2269.23 341.23L2273.33 344.648C2275.73 347.952 2279.14 351.37 2283.59 354.902C2283.7 355.358 2284.16 355.814 2284.95 356.27C2286.44 358.548 2288.71 360.827 2291.79 363.105L2292.47 364.473L2293.84 365.156L2297.26 368.574L2298.63 370.625L2299.99 371.309L2301.36 373.359L2302.73 374.727L2304.78 376.094V214.082C2304.21 207.93 2305.12 201.549 2307.51 194.941V192.891C2322.1 171.357 2339.64 169.535 2360.15 187.422L2362.88 192.207C2363.34 194.941 2364.25 198.132 2365.62 201.777V209.98V212.031V223.652V226.387V229.121V231.855V234.59V242.109V254.414V257.148V261.25V264.668V268.77V273.555V277.656V282.441V303.633V305.684V307.734V321.406V326.875V332.344V337.812V343.281V356.953V361.738V365.84V378.145V380.879V394.551V396.602V399.336V401.387V404.805V406.855V411.641V417.109V421.895V427.363V432.832V438.301V443.77C2365.96 447.757 2365.5 452.314 2364.25 457.441V459.492C2359.47 469.746 2351.03 476.582 2338.96 480C2331.67 480 2324.15 477.949 2316.4 473.848C2314.23 470.771 2311.04 467.581 2306.83 464.277L2303.41 460.176L2302.04 458.809C2300.45 457.555 2298.63 455.732 2296.58 453.34L2294.52 451.973L2288.37 445.137L2285.64 443.086C2284.38 441.149 2282.56 439.326 2280.17 437.617C2278.69 435.339 2276.41 433.06 2273.33 430.781L2272.65 429.414L2264.45 421.895C2264.33 421.439 2263.88 420.983 2263.08 420.527L2262.4 419.16L2261.03 417.793L2259.66 416.426L2258.29 415.059L2256.93 413.691L2254.88 411.641L2252.14 408.906L2248.72 406.172L2245.99 402.754L2235.74 393.184C2232.77 389.31 2228.44 384.98 2222.75 380.195C2222.63 379.74 2222.18 379.284 2221.38 378.828C2221.27 378.372 2220.81 377.917 2220.01 377.461C2218.99 375.752 2217.39 374.157 2215.23 372.676L2213.18 370.625C2211.01 367.549 2207.82 364.359 2203.61 361.055C2202.13 358.776 2199.85 356.497 2196.77 354.219L2196.09 352.852L2194.72 352.168L2194.04 350.801L2189.93 347.383L2186.52 343.281L2182.42 339.863C2180.93 337.585 2178.66 335.306 2175.58 333.027L2174.9 331.66L2173.53 330.977L2170.11 327.559L2168.74 325.508L2167.38 324.824C2167.26 324.368 2166.81 323.913 2166.01 323.457C2165.89 323.001 2165.44 322.546 2164.64 322.09L2163.27 320.039L2161.22 318.672L2159.86 316.621L2157.12 313.887L2153.02 310.469C2150.63 307.165 2147.21 303.747 2142.77 300.215C2142.65 299.759 2142.2 299.303 2141.4 298.848C2139.92 296.569 2137.64 294.29 2134.56 292.012L2133.88 290.645L2132.51 289.961L2129.09 286.543L2127.73 284.492L2126.36 283.809L2124.99 281.758L2123.63 280.391L2121.58 279.023V287.227V289.277V300.898V303.633V312.52V315.938V323.457V331.66V333.711V345.332V348.066V356.953V365.156V367.207V378.828V382.93V391.133V393.184V404.805V407.539V410.273V413.008V415.742V423.262V435.566V438.301V443.77L2120.89 454.707L2120.21 456.074V458.809C2115.76 470.088 2107.11 476.924 2094.23 479.316C2081.02 480.342 2070.53 474.417 2062.79 461.543C2060.96 454.593 2060.28 445.706 2060.74 434.883V209.297L2062.1 195.625ZM2403.22 227.07C2418.14 196.764 2444.12 179.447 2481.15 175.117H2489.35H2491.4H2503.02H2505.75H2514.64H2518.06H2525.58H2533.78H2535.83H2547.45H2550.19H2559.08H2567.28H2569.33H2580.95H2594.62H2596.67H2599.41H2601.46H2604.88H2606.93H2616.5H2628.8H2631.54H2633.59H2647.26H2649.31H2654.78H2668.45H2670.5L2682.81 178.535C2692.83 185.371 2698.07 195.397 2698.53 208.613C2695.79 221.488 2687.82 230.374 2674.6 235.273L2663.67 235.957H2660.93H2658.88H2656.15H2654.09H2644.52H2632.22H2629.49H2626.75H2617.18H2603.51H2601.46H2598.72H2593.94H2589.84H2585.74H2572.06H2563.86H2561.81H2550.19H2547.45H2544.72H2541.99H2529.68H2526.95H2523.53H2515.33H2513.27H2501.65H2498.92H2490.03H2486.61H2483.88H2478.41C2464.28 240.286 2456.31 250.312 2454.49 266.035C2455.28 280.618 2463.03 290.872 2477.73 296.797L2491.4 297.48H2493.45H2496.18H2498.24H2507.81H2516.69H2528.31H2537.2H2540.62H2544.72H2556.34H2564.54H2566.59H2578.22H2580.95H2589.84H2594.62H2599.41H2613.08H2615.13C2617.98 298.392 2621.4 298.848 2625.38 298.848L2633.59 301.582L2635.64 302.266H2637.69L2639.06 303.633L2641.11 304.316L2643.84 305L2645.89 305.684C2647.71 307.051 2649.99 308.19 2652.73 309.102L2653.41 310.469C2693.52 335.648 2706.5 372.106 2692.38 419.844C2683.83 443.086 2667.2 460.859 2642.47 473.164C2639.51 473.734 2635.87 474.873 2631.54 476.582L2626.07 477.949L2621.28 478.633L2618.55 479.316C2616.16 479.089 2613.42 479.316 2610.34 480H2608.29H2606.24H2603.51H2598.72H2596.67H2594.62H2592.57H2583H2570.7H2567.96H2559.08H2555.66H2551.56H2539.93H2535.83H2514.64H2500.97H2498.92H2496.18H2494.13H2490.72H2488.67H2485.93H2480.46H2474.99H2466.79H2464.74H2453.12H2450.38H2447.65H2444.92H2432.61H2429.88H2426.46H2421.67L2416.89 479.316C2405.04 475.329 2397.29 466.67 2393.65 453.34C2393.42 440.124 2399.34 429.642 2411.42 421.895C2413.24 421.895 2415.29 421.211 2417.57 419.844L2428.51 419.16H2431.24H2433.29H2436.03H2438.08H2447.65H2459.95H2462.69H2466.11H2470.21H2472.94H2475.68H2496.87H2509.17H2511.91H2515.33H2518.74H2522.16H2525.58H2529H2532.42H2546.09H2548.14H2550.87H2552.92H2556.34H2558.39H2567.96H2572.06H2580.27H2582.32H2593.94H2596.67H2605.56H2608.98H2611.71L2616.5 418.477C2625.16 414.831 2631.99 407.995 2637 397.969C2639.85 383.044 2634.84 370.739 2621.97 361.055C2617.86 359.346 2612.85 358.206 2606.93 357.637H2598.72H2596.67H2585.05H2582.32H2573.43H2561.13H2559.08H2556.34H2553.61H2545.4H2543.35H2531.73H2529H2520.11H2516.69H2513.96H2500.29H2498.24H2495.5H2493.45H2490.03H2487.98H2482.51H2477.73L2462 354.902L2459.27 354.219L2457.22 353.535C2456.54 353.193 2455.62 352.965 2454.49 352.852C2451.64 351.029 2447.54 349.206 2442.18 347.383L2440.81 346.016L2438.76 344.648L2436.03 343.965L2433.98 342.598C2432.61 341.003 2430.79 339.635 2428.51 338.496L2418.25 328.926L2417.57 327.559L2416.2 326.875L2415.52 325.508L2414.15 324.824C2391.94 295.885 2388.29 263.301 2403.22 227.07Z" fill="black"/>
<path d="M37.4898 26H0V62.9369H37.4898V26Z" fill="black"/>
<path d="M137.463 103.283H62.483V178.294H137.463V103.283Z" fill="black"/>
<path d="M55.6667 216.935H13.0646L13.6327 259.555H55.6667V216.935Z" fill="black"/>
<path d="M207.33 60.6638V167.497H247.092C277.566 169.817 292.737 175.829 316.391 194.205L394.779 275.466C407.367 291.754 412.878 302.988 416.932 330.587V359H501V275.466H483.959C452.901 273.902 437.119 264.97 410.116 243.643L341.384 173.179C324.604 154.389 317.603 140.169 313.551 102.147V60.6638H207.33Z" fill="black"/>
<path d="M260.971 597V271.134C332.128 268.832 354.826 284.486 367.829 342.79V501.458L471.845 498.615C645.773 475.298 633.268 229.618 471.845 210.851C456.498 210.851 389.968 193.852 392.27 140.332V113.603L487.76 116.447C808.902 169.905 746.947 575.389 487.76 594.725L260.971 597Z" fill="black"/>
<path d="M220.047 372.363V247.248H95V372.363H220.047Z" fill="black"/>
<path d="M173.438 1H113.757V60.145H173.438V1Z" fill="black"/>
<path d="M429.215 9.53053H377.491V60.7137H429.215V9.53053Z" fill="black"/>
<path d="M260.971 597V271.134C332.128 268.832 354.826 284.486 367.829 342.79V501.458L471.845 498.615C645.773 475.298 633.268 229.618 471.845 210.851C456.498 210.851 389.968 193.852 392.27 140.332V113.603L487.76 116.447C808.902 169.905 746.947 575.389 487.76 594.725L260.971 597Z" stroke="black"/>
<path d="M220.047 372.363V247.248H95V372.363H220.047Z" stroke="black"/>
<path d="M173.438 1H113.757V60.145H173.438V1Z" stroke="black"/>
<path d="M429.215 9.53053H377.491V60.7137H429.215V9.53053Z" stroke="black"/>
</svg>
