<svg width="720" height="408" viewBox="0 0 720 408" fill="none" xmlns="http://www.w3.org/2000/svg">
<path d="M289.445 477.249C153.012 381.895 30.6764 169.322 159.569 49.6719C279.074 -61.2631 341.264 61.6243 479.61 -9.07262C617.957 -79.7696 549.692 -284.307 707.573 -334.244C799.212 -363.229 911.02 -316.553 970.155 -209.849C1029.29 -103.145 1035.76 63.5875 916.706 274.716C804.251 474.152 667.25 538.633 548.456 546.333C429.662 554.032 329.074 504.947 289.445 477.249Z" stroke="white" stroke-opacity="0.4" stroke-width="2.03063" stroke-miterlimit="10"/>
<path d="M900.38 274.601C797.516 457.669 671.951 517.688 562.615 525.361C453.99 532.816 361.674 488.546 324.302 463.027C197.39 375.779 83.3162 179.824 198.739 66.9317C305.313 -37.3074 362.962 70.3517 489.805 4.39096C493.409 2.50135 496.868 0.518179 500.189 -1.55357C590.18 -57.6246 578.569 -179.088 639.035 -249.292C655.449 -268.35 677.09 -283.729 707.378 -292.922C794.5 -319.366 897.72 -275.335 951.751 -176.348C1005.93 -76.8131 1010.34 78.4873 900.38 274.601Z" stroke="white" stroke-opacity="0.4" stroke-width="2.03063" stroke-miterlimit="10"/>
<path d="M884.055 274.487C790.783 441.186 676.652 496.744 576.773 504.392C478.319 511.6 394.194 472.257 359.16 448.805C241.495 370.04 135.95 190.361 237.909 84.1918C331.552 -13.3195 384.884 79.4633 500 17.8542C503.318 16.0786 506.494 14.1991 509.557 12.2535C592.336 -40.2023 585.737 -149.852 643.239 -212.58C658.941 -229.709 679.251 -243.524 707.185 -251.6C789.806 -275.487 884.422 -234.117 933.349 -142.846C982.576 -50.4802 984.935 93.3871 884.055 274.487Z" stroke="white" stroke-opacity="0.4" stroke-width="2.03063" stroke-miterlimit="10"/>
<path d="M867.729 274.374C784.048 424.705 681.375 476.043 590.931 483.422C502.668 490.622 426.761 455.907 394.017 434.584C285.767 364.086 188.581 200.943 277.078 101.453C357.793 10.7118 406.684 88.3528 510.194 31.3179C513.222 29.6497 516.121 27.8802 518.924 26.0611C594.49 -22.7801 592.929 -120.613 647.443 -175.868C662.437 -191.066 681.42 -203.305 706.991 -210.278C785.129 -231.584 871.123 -192.899 914.946 -109.345C959.219 -24.1471 959.525 108.288 867.729 274.374Z" stroke="white" stroke-opacity="0.4" stroke-width="2.03063" stroke-miterlimit="10"/>
<path d="M851.402 274.259C777.604 408.37 686.084 455.169 605.089 462.451C527.004 469.471 459.332 439.552 428.873 420.362C330.063 358.107 241.211 211.584 316.246 118.713C384.043 34.7999 428.473 97.2121 520.388 44.7809C523.125 43.2194 525.745 41.5608 528.291 39.8678C596.643 -5.35836 600.152 -91.3675 651.645 -139.157C665.941 -152.424 683.594 -163.07 706.794 -168.956C780.473 -187.651 858.026 -151.776 896.54 -75.8428C936.07 2.08774 934.442 123.353 851.402 274.259Z" stroke="white" stroke-opacity="0.4" stroke-width="2.03063" stroke-miterlimit="10"/>
<path d="M835.076 274.145C770.917 391.909 690.796 434.286 619.247 441.481C551.341 448.31 491.914 423.188 463.731 406.139C374.391 352.094 293.86 222.309 355.416 135.973C410.321 58.9654 450.25 106.034 530.583 58.2438C533.029 56.7881 535.372 55.2407 537.659 53.6745C598.799 12.0629 607.417 -62.1079 655.85 -102.445C669.458 -113.779 685.781 -122.812 706.601 -127.635C775.845 -143.673 844.761 -110.571 878.138 -42.3418C912.749 28.4079 909.094 138.283 835.076 274.145Z" stroke="white" stroke-opacity="0.4" stroke-width="2.03063" stroke-miterlimit="10"/>
<path d="M818.75 274.032C764.212 375.44 695.508 413.389 633.406 420.51C575.679 427.131 524.506 406.814 498.588 391.918C418.758 346.037 346.556 233.148 394.587 153.233C436.656 83.2363 472.005 114.808 540.779 71.7083C542.934 70.3574 544.998 68.9229 547.027 67.4829C600.953 29.4863 614.735 -32.8186 660.054 -65.7329C672.988 -75.1268 687.978 -82.5272 706.407 -86.3118C771.247 -99.6289 831.482 -69.3555 859.735 -8.83919C889.416 54.7355 883.731 153.204 818.75 274.032Z" stroke="white" stroke-opacity="0.4" stroke-width="2.03063" stroke-miterlimit="10"/>
<path d="M802.424 273.917C757.48 358.955 700.222 392.468 647.564 399.54C600.018 405.926 557.113 390.42 533.446 377.696C463.175 339.913 395.279 242.245 433.756 170.492C466.596 109.251 493.722 123.511 550.973 85.1706C552.836 83.9225 554.624 82.6028 556.396 81.2886C603.109 46.9066 622.114 -3.48253 664.259 -29.0224C676.537 -36.463 690.186 -42.2095 706.214 -44.991C766.682 -55.4871 818.186 -28.1321 841.332 24.6616C866.064 81.0726 858.344 168.112 802.424 273.917Z" stroke="white" stroke-opacity="0.4" stroke-width="2.03063" stroke-miterlimit="10"/>
<path d="M786.098 273.804C750.708 342.451 704.934 371.506 661.722 378.571C624.353 384.68 589.739 373.998 568.303 363.475C507.65 333.698 452.436 255.283 472.926 187.754C489.785 132.189 515.381 132.122 561.168 98.6349C562.737 97.4872 564.25 96.2841 565.763 95.0966C605.264 64.3299 629.559 25.944 668.463 7.69044C680.103 2.2285 692.402 -1.84481 706.019 -3.66789C762.15 -11.1828 804.859 13.1059 822.929 58.1644C842.684 107.424 832.912 182.996 786.098 273.804Z" stroke="white" stroke-opacity="0.4" stroke-width="2.03063" stroke-miterlimit="10"/>
<path d="M769.772 273.69C743.87 325.915 709.633 350.46 675.88 357.601C648.676 363.357 622.39 357.522 603.16 349.253C552.194 327.338 506.01 266.508 512.095 205.014C516.867 156.798 536.929 140.599 571.363 112.098C572.635 111.046 573.876 109.965 575.131 108.904C607.418 81.7522 637.05 55.5153 672.667 44.4023C683.684 40.9646 694.621 38.5755 705.825 37.6537C757.641 33.3912 791.486 54.3592 804.526 91.6658C819.25 133.794 807.392 197.84 769.772 273.69Z" stroke="white" stroke-opacity="0.4" stroke-width="2.03063" stroke-miterlimit="10"/>
<path d="M551.265 222.274C544.206 179.446 559.424 146.248 584.499 122.711C609.573 99.1738 644.504 85.2978 676.871 81.1141C743.282 72.5299 776.53 90.1525 786.123 125.167C795.716 160.182 781.654 212.59 753.447 273.576C725.239 334.562 679.24 349.314 638.019 335.031C596.798 320.749 560.356 277.43 551.265 222.274Z" stroke="white" stroke-opacity="0.4" stroke-width="2.03063" stroke-miterlimit="10"/>
</svg>
